<svg xmlns="http://www.w3.org/2000/svg" xml:space="preserve" fill-rule="evenodd" stroke-linejoin="round"
	stroke-miterlimit="2" clip-rule="evenodd" viewBox="0 0 194 2076">
	<path fill="none" d="M0 0h193.9v2075.7H0z" />
	<path fill-rule="nonzero"
		d="M58.2 6.4C44.1 2.2 30.7 3.9 22 11.8c-8.4 8-11.7 20.8-8.4 35.4a85 85 0 0 0 20 36.3 83.3 83.3 0 0 0 33.8 22.9 45.1 45.1 0 0 0 20.4 2.5v610.8H71.1a13 13 0 0 0-12.9 13 13 13 0 0 0 13 12.9h16.6v220a80.8 80.8 0 0 0-29.2-18.8c-14.5-5-27.9-2.9-36.6 5-8.4 8.4-11.7 20.9-8.4 35.9a83.8 83.8 0 0 0 34.2 48.3c-5 4.1-10 8.3-14.2 13.3a83.3 83.3 0 0 0-20 35.9c-3.3 14.5 0 27.5 8.4 35.8 8.7 7.9 22 9.6 36.2 5a71.5 71.5 0 0 0 29.2-18.8v219.6H70.7a13 13 0 0 0 0 25.8h16.7V1964c-5.8-.8-12.5 0-20 2a88.3 88.3 0 0 0-33.8 23.4 83.3 83.3 0 0 0-20 36.3c-3.3 14.6 0 27.5 8.4 35.4 8.7 8.3 22 10 36.2 5a83 83 0 0 0 42.5-33.8c10 15.9 25 27.9 42.5 34.2 14.2 4.2 27.5 2.5 36.3-5.4 6.4-6.4 10-15.1 9.6-24.2 0-4.1 0-7.5-1.3-11.2a85 85 0 0 0-20-36.3 83.3 83.3 0 0 0-33.7-23.3 51 51 0 0 0-20.5-2.1v-610.8h16.7c7.1 0 13-5.9 13-13a13 13 0 0 0-13-12.9h-16.7v-220a80.8 80.8 0 0 0 29.2 18.8c14.6 4.6 28 2.9 36.7-5 6.5-6.5 10-15.4 9.6-24.6 0-3.8 0-7.5-1.3-11.3a93.4 93.4 0 0 0-34.6-48.7 83.4 83.4 0 0 0 34.6-48.8l1.3-11.2c.3-9.2-3.2-18-9.6-24.6-8.8-7.9-22.1-10-36.3-5a71.5 71.5 0 0 0-29.1 18.8V746h16.6a13 13 0 0 0 0-25.8h-16.6V108.9a44 44 0 0 0 20-2.5 82.7 82.7 0 0 0 33.7-23 83.3 83.3 0 0 0 20-36.2l1.3-11.2a33 33 0 0 0-9.6-24.2c-8.8-8.3-22.1-10-36.3-5.4a83 83 0 0 0-42.5 34.2A83.3 83.3 0 0 0 58.2 6.4ZM125.7 1991a60 60 0 0 1 23 15.8c7 7.5 12.4 16.7 14.1 24.6 1.3 5.4.4 9.2-.8 10.4-1.3 1.3-5 1.7-10.9 0a58.4 58.4 0 0 1-22.9-16.7 51.2 51.2 0 0 1-14.6-29.5c0-2.5.9-4.2 1.3-5 1.7-1.3 5.4-1.7 10.8 0v.4Zm-39.1-.4c1.2 1.2 1.6 5 .4 10.4a54.4 54.4 0 0 1-13.8 24.6 58 58 0 0 1-22.9 15.8c-5.8 2-9.6 1.7-10.8.4-.9-.8-1.3-2.5-1.3-5a54.2 54.2 0 0 1 14.6-30 60 60 0 0 1 23-15.8c5.3-2.1 9.1-1.7 10.8-.4Zm39.1-940a57 57 0 0 1 23 16.2c7 7.5 12.4 16.7 14.1 24.2 1.3 5.8.4 9.6-.8 10.8-1.3 1.3-5 1.3-10.9-.4a60 60 0 0 1-22.9-15.8 55.6 55.6 0 0 1-14.6-30c0-3 .5-4.2 1.3-5.5 1.7-.8 5.4-1.2 10.8.5Zm-39.1 0c1.2.8 1.6 4.5.4 10.4a57.5 57.5 0 0 1-13.8 24.6 58 58 0 0 1-22.9 15.8c-5.8 1.7-9.6 1.7-10.8 0-.9-.4-1.3-2-1.3-5a53.2 53.2 0 0 1 14.6-29.6 57 57 0 0 1 23-16.2c5.3-1.7 9.1-1.3 10.8 0Zm75-79.2c1.6.8 2.5 4.6 1.2 10.4a59 59 0 0 1-14.2 24.2 58 58 0 0 1-22.9 16.2c-5.4 1.7-9.1 1.3-10.4 0-.8-.4-1.7-2.5-1.7-5a56.6 56.6 0 0 1 14.6-30 60 60 0 0 1 23-15.8c5.8-2 9.5-1.7 10.8 0h-.4Zm-111.3 0a60 60 0 0 1 23 15.8c7 8 12 16.7 13.7 24.6 1.2 5.8.8 9.6-.9 10.4-1.2 1.3-5 1.7-10.4 0a57 57 0 0 1-22.9-16.2 56.6 56.6 0 0 1-14.2-24.2 25 25 0 0 1-.4-5.4c0-3 .4-4.2 1.3-5.4 1.2-1.3 5-1.7 10.8 0v.4ZM150.7 31c5.9-1.7 9.6-1.3 10.9 0 1.2 1.2 2 5 .8 10.4-2 8.3-7 16.7-14.2 24.6a58 58 0 0 1-22.9 15.8c-5.4 2.1-9.2 1.7-10.4.4a7.1 7.1 0 0 1-1.7-5 54.2 54.2 0 0 1 14.6-30c6.2-7.2 14-12.8 23-16.2ZM50 31a62.4 62.4 0 0 1 23 16.2 54.2 54.2 0 0 1 13.7 24.6c1.2 5.4.8 9.2-.9 10.4-1.2 1.3-5 1.7-10.4 0a58.3 58.3 0 0 1-22.9-16.6 54.2 54.2 0 0 1-14.2-24.2 25 25 0 0 1-.4-5.4c0-2.5.4-4.2 1.3-5 1.2-1.3 5-1.7 10.8 0Z" />
</svg>