<svg xmlns="http://www.w3.org/2000/svg" xml:space="preserve" viewBox="0 82.43 439.85 275.08"> 	<path d="M439.8 340.7a3 3 0 0 0-2.3-2.4 284 284 0 0 0-43.2-6.5c2.6-4.5 4-9.4 4-13.9 0-10.4-7.5-21.3-15-27.4-9.2-7.6-26-15.4-53.8-9.8-5.3 1.1-9 5.6-9.2 11-.3 7 0 14.1.2 17.7l-11.9 3.5-1.8-69a51.9 51.9 0 0 1 2.4-16.8c2-6.3 4.6-15.3 5.8-22.6 2-12.2 9-50.2 9.5-52.6l5-18.8a35.6 35.6 0 0 0 0-18.6l-.8-3a11.1 11.1 0 0 0-8.7-8.2 10.7 10.7 0 0 0-6.3.8l-29-19.6a11.6 11.6 0 0 0-14 .6 12 12 0 0 0-2.8 3.6c-6 11-16.9 30.3-22.6 37.4-3.6 4.6-9.5 9.8-15.7 15.4-7.8 7-15.8 14.1-20.3 20.7a50.7 50.7 0 0 0-10.1 27c-.3 2.7-.6 5.2-1.4 8a44.5 44.5 0 0 1-8.1 15.6L161.3 248l-12 13.2c-8.8-11.5-41.4-53.2-57.7-59.9-8.6-3.6-16.6-1.5-23.3 6-4.3 4.7-7 10.9-7.8 17.7-6.3 50.5-12.4 85.9-15.7 90.2-1.2 1.5-7.5 6.8-40.1 21.3-4 1.7-5.7 6-4.1 10.2 1.1 3 4 4.8 7.3 4.8l50.1-.2c5 .2 9.2-3.5 9.6-8.5l.8-11.2a49.4 49.4 0 0 1 4.9-17.8 269 269 0 0 0 18.5-47.4c10.2 23.9 23 41 26.3 45.3a26 26 0 0 0 1.2 12.6c10.5 28 27.9 31.5 41.9 31.5 8.2 0 21.8-1.6 33.8-3 10-1.1 19.5-2.3 24.2-2.3 4 0 13.3 1 23.2 2.2 14 1.5 29.5 3.2 39.4 3.2h4c12-1 16.8-5.2 18.6-7.7l24.8-3.8a54.7 54.7 0 0 0 35.4 7.9 73 73 0 0 0 27.8 5.2c23.3 0 45-13 46-13.6a3 3 0 0 0 1.4-3zM233.6 146c6.4-5.8 12.5-11.2 16.4-16.1 6-7.5 17.1-27.4 23.2-38.5a5.6 5.6 0 0 1 4-2.9c1.6-.2 3 .2 4.3 1l27.5 18.7-6.9 9.4a59 59 0 0 0-27.4 5.7c-6.8 3.7-17.6 22.8-29.7 47a55.2 55.2 0 0 0-23-13.6c3.5-3.5 7.6-7.2 11.6-10.7zm38.7 134.7c-6.2-.5-19.7 0-28.3 12-9 .3-34.7 2.1-45.5 2.9 6.5-16.4 28.8-72 32-82l8-16.3c10-21 31-64.3 39.1-68.8a51.5 51.5 0 0 1 22.5-5c-1 7-2.4 22.1 1.4 31.1l-5.8 20.1c-6 20.8-13.6 46.7-15 54-1.2 5.4-5 29.6-8.4 52zM67.9 311.1a55.4 55.4 0 0 0-5.4 20l-.9 11.1a3.2 3.2 0 0 1-3.4 3h-.1l-50.2.2c-1.4 0-1.8-1-1.8-1.5-.1-.4-.2-1.5 1-2 37.6-16.7 41.3-21.6 42.6-23.2 3.4-4.7 7.7-28.5 11.4-53.4a40 40 0 0 0 21.7 8h.8c-4.5 14-11.8 29.7-15.7 37.8zm25.4-57.5a3 3 0 0 0-5.8 1 55 55 0 0 1-2 12.6c-9.7 1.5-20-6-23.4-8.7a1910.2 1910.2 0 0 0 4.3-32.8c.7-5.6 3-10.7 6.4-14.6 5-5.5 10.3-7 16.6-4.4 15 6.3 48.2 49 55.7 58.8a118.8 118.8 0 0 0-25.2 38.5c-6-8.5-18.3-27.1-26.6-50.4zm31.7 68.5c-4.5-11.8 5-28.1 13.9-39.8 6.7-8.9 14-16.4 18-20.4 2-1.9 11.3-13 11.3-13l26.1-32.3a50.4 50.4 0 0 0 9.3-17.8c1-3.3 1.2-6.2 1.5-9a45 45 0 0 1 9.2-24.2 43 43 0 0 1 3-4c4.8 1.3 18.2 5.7 24.7 14.6a2204.4 2204.4 0 0 0-9 18.5c-3.5 7.4-6.3 13.2-8 16.3a3 3 0 0 0-.2.6 2893.2 2893.2 0 0 1-34.4 88.3l-5 15.9a3 3 0 0 0 5.7 1.8l5-15.8 5.6-.4c-1.4 8.7-6.7 32.2-25.4 47.4-5.8.5-11.2 1-15.1 1-13.5 0-27.1-3.4-36.2-27.7zm94.2 22.3c-5 0-14.7 1.2-25 2.4l-7.9.9a87 87 0 0 0 21.5-46.8 1048 1048 0 0 1 37.8-2.1 3 3 0 0 0 2.5-1.4 24.3 24.3 0 0 1 23.2-10.8l-2.8 18.4c-4 2.3-15 9.6-17.7 21.7-1.6 6.9-.3 14 3.8 21.2l-11.6-1.3a285.6 285.6 0 0 0-23.8-2.2zm66.2 5.3c-5 .4-13.7-.2-23.1-1-5.2-7.3-7.2-14.2-5.7-20.6a28 28 0 0 1 10.7-15l-1.5 9.6a3 3 0 0 0 6 1c.5-3.7 12.3-82 14.7-93.8 1.4-7 9.2-33.9 15-53.5l6-21.2a3 3 0 0 0-.2-2.1c-3.8-7.7-2-24.5-.9-31.2l7.4-10 .6-.7c2.3-2.4 4.3-2 4.7-2 1.8.4 3.2 1.6 3.7 3.4l1 3.5a29.7 29.7 0 0 1 0 15.4l-4.9 17.9-.3 1.3c0 .4-7.4 40.2-9.5 52.8a180 180 0 0 1-5.6 21.8 58 58 0 0 0-2.7 18.8l1.9 72.7c-.2 7.5-2.8 27.5-11.7 32.2a37 37 0 0 1-5.6.7zm46.4-11a3 3 0 0 0-2.3-.6l-25.8 4a75.7 75.7 0 0 0 4.9-23l15.9-4.6a3 3 0 0 0 2.1-3.1c0-.1-.7-10-.3-19.6 0-2.5 1.9-4.7 4.4-5.2 25.5-5.1 40.6 1.8 48.9 8.6a32.4 32.4 0 0 1 12.8 22.7c0 12.9-15.2 28.7-32.9 28.7a47.6 47.6 0 0 1-27.7-7.8zm60.6 12.7c-7 0-12.8-1-17.5-2.1 6-2.7 11.1-6.7 15.1-11.4h.8c9.2-.6 26.8 2.5 37.1 4.5-8 3.8-21.7 9-35.5 9z" data-original="#000000"/> </svg>