<svg xmlns="http://www.w3.org/2000/svg" xml:space="preserve" viewBox="0 0 30 60">
	<path
		d="M15.1 26.23c-.13-1.4-.03-5.18 3.6-10.45a1 1 0 0 0-.11-1.28c-1.48-1.48-2.4-2.4-3.04-3.06a40.88 40.88 0 0 0-1.8-1.77 1 1 0 0 0-1.32-.01C6.1 15.16-.92 26.53.1 40.46c.6 8.2 6.57 14.14 14.2 14.14a14.2 14.2 0 0 0 14.19-14.2 14.2 14.2 0 0 0-13.38-14.16zm-.82 26.36c-6.55 0-11.68-5.16-12.2-12.27-1.14-15.67 8.18-25.85 11-28.54l1.04 1.06 2.47 2.5c-4.4 6.78-3.57 11.62-3.2 12.31.16.33.52.55.9.55a12.2 12.2 0 0 1 12.18 12.2A12.2 12.2 0 0 1 14.3 52.59z"
		data-original="#000000" />
</svg>