<svg xmlns="http://www.w3.org/2000/svg" xml:space="preserve" viewBox="0 0 458.5 458.5">
	<path
		d="M405 215.8a34.6 34.6 0 0 0-23-12.5 29 29 0 0 0-9.1-3.9 13.8 13.8 0 0 0-2.8-.2c-5 0-9.4 2.5-12 6.8-2.3 3.9-2.9 8.6-2.3 13.6a48.3 48.3 0 0 0-2.5 3.6 7.1 7.1 0 0 1-5.4 3.2l-.5-7.5a57 57 0 0 0 3-31.4 42.1 42.1 0 0 1 .2-21.5c6.4-23.9 16-66.9 18.7-79.5.7-3.2 1-6.5.6-9.8l-2.3-26a32 32 0 0 0-.4-3l-.5-3.1a9 9 0 0 0-.2-.7l-4.2-16c-.4-1.6-2-2.7-3.6-2.4a3 3 0 0 0-2.3 3.7L360 43l-2.6-1-6.4-10.8c-.8-1.4-2.6-2-4-1.3a3 3 0 0 0-1.3 4.2l6 10-1.8 2-8.1-10.3a3 3 0 0 0-3.8-1 3 3 0 0 0-1 4.6l8.8 11.2-.9 1-8.7-6.4a3 3 0 0 0-4.2.5 3 3 0 0 0 .6 4.3l10.2 7.4 5.8 17.3a14.2 14.2 0 0 1-.2 9.4c-6.1 16.6-16.3 46.2-15.5 58.1.1 2-.2 4.1-1 6.2l-3.5 9.4c-5 13.1-10.8 27.9-10.2 36.6-4 3.5-18.6 15.2-34.1 11.3-18.5-4.6-48-23.7-50.9-25.5l-57.1-53.6a64 64 0 0 1-11.7-14.8c-6.7-11.6-20-33.2-35-47.4-19.8-18.9-38-38-39.8-39.8L77.5 8A19.2 19.2 0 0 0 56.6.8L52 2c-2.8.8-5.1 3-5.9 5.8a8.1 8.1 0 0 0 2 7.8L74 42.2a27 27 0 0 0 5.5 4.4A80.3 80.3 0 0 1 97 59.4c2.2 2.6 5 10 7.5 16.6 3 7.7 5.7 15 8.5 18.4 4.8 5.7 21.1 20.4 24 23l52.3 98c-6.7 6-12 15.5-12 30 0 35 5.1 74.6 6 80.7-1.7 4-8.9 23.3-8 35.6.6 7.7 3.9 21.2 6.7 33.1 2 8.4 4 16.4 4.4 20 .6 6.1-.1 17.3-.7 23.3a8 8 0 0 0 5.9 8.4c9.7 2.6 25.7 6.5 35.8 6.5a21 21 0 0 0 5.8-.7c6.4-1.9 11.2-6 14.2-9a5.7 5.7 0 0 0 1.6-4.6 5.6 5.6 0 0 0-4.5-4.9c-26.9-5-33.1-15.4-34.4-18.5-6.4-15.7-.2-66.3.2-69.3l16.3-73 48.8 10.3a60.8 60.8 0 0 0 27.8 6.3c5.5 6 12.2 10 15.2 11.7.4 8 2.1 40.2 6.3 50.8.3.9.6 1.8.7 2.8 2.3 17.6 10.7 57.2 17 68.6 1.7 11.5 1.2 18.6-1.4 22.1a3 3 0 0 0-.3 3.4 3 3 0 0 0 5 .3c1.8-2.3 2.9-5.3 3.4-9l4.2 1.1-2.9 13.3a3 3 0 0 0 1.8 3.5 3 3 0 0 0 4-2.1l2.7-12a21 21 0 0 1 5.2 4.4l8 9a3 3 0 0 0 2.2 1 3 3 0 0 0 2-.7c1.3-1.1 1.3-3.2.2-4.5l-8-8.8a33.9 33.9 0 0 0-19.1-10.3c0-3.5-.4-7.5-1-12.1a3 3 0 0 0-.5-1.2c-5.4-9-14.1-48-16.5-66.8a17.9 17.9 0 0 0-1.1-4.2c-4.3-10.9-6-50.2-6-50.6a3 3 0 0 0-1.6-2.5c-.1 0-8.7-4.4-15.1-11.3.7-3.7 3.7-14.4 12.3-19.4 6.3-3.5 14.5-3.4 24.5.4 0 8 .2 38.4-3.6 53-.9 3.6-1.1 7.2-.7 10.8l2.7 24c.3 3.9 1.4 7.5 3 10.8a24 24 0 0 1 2.5 11.4c0 2 0 4.5-.2 7.2-.5 11.9-1.3 28 5.7 39.3 7.6 12.4 13.2 20.7 21.4 24.2a3 3 0 0 0 4-2 3 3 0 0 0-1.8-3.5c-6-2.6-10.6-8.9-18.5-21.8-6-9.7-5.3-24.9-4.8-36l.2-7.4c0-6.7-1.7-11.4-3.1-14.2a23.6 23.6 0 0 1-2.5-8.6c-.6-6.6-1.6-16.2-2.6-24.1-.4-2.9-.2-5.8.5-8.7 4.5-17.5 3.8-55 3.7-56.5 0-1 .8-1.9 1.8-1.9h7.8l3.7 4.5a11.8 11.8 0 0 0 14.6 3c11.7-6.2 31.7-18.5 34-32a26.9 26.9 0 0 0-7.1-22.2zm-41.7-6.7a7.9 7.9 0 0 1 8.3-3.8l2.4.7c-2.4 2-4.1 5.5-4.1 10.8 0 6.5 1.1 19 2 28.3-6.7-11.5-13.7-27.5-8.6-36zm-39.8-11.5a3 3 0 0 0 .8-2.7c-1.2-6.7 5-23.1 9.7-35l3.6-9.6c1-2.9 1.5-5.8 1.3-8.6-.5-7.8 5.1-28.6 15.1-55.6a20.2 20.2 0 0 0 .3-13.4l-5.6-16.5 7.5-8.3 5.3 1.8 2.5 27.6a26.2 26.2 0 0 1-.6 8 2239 2239 0 0 1-18.6 79.1 48.1 48.1 0 0 0-.3 24.6 51 51 0 0 1-3 28.3 3 3 0 0 0-.2 1.4l.6 7.8c-19.5 0-31-12-35.3-17.7a53 53 0 0 0 4.7-2.3c7.3-4 12-8.7 12.2-9zm-205.9-107c-2.1-2.7-5-10.1-7.5-16.7-2.9-7.7-5.6-15-8.5-18.4a90.3 90.3 0 0 0-19-14 21 21 0 0 1-4.4-3.5L52.5 11.5a2.1 2.1 0 0 1-.6-2 2.1 2.1 0 0 1 1.5-1.6l4.9-1.4c5.3-1.5 11 .4 14.3 4.9L85 28.2l.3.3c.2.2 19.3 20.3 40 40.1a187 187 0 0 1 26.3 33.4 29.8 29.8 0 0 1-11.7 9.9 358.7 358.7 0 0 1-22.2-21.4zm125 349a27.3 27.3 0 0 1-11.1 7c-4.9 1.5-19.6-.8-38.4-5.9a2 2 0 0 1-1.4-2c.6-6.3 1.4-18 .6-24.6a231 231 0 0 0-4.4-20.7c-2.8-11.7-6-25-6.6-32.2v-.4c3.6 1.3 9 2.8 14.8 2.8a30.7 30.7 0 0 0 6.4-.7c-1.5 17.6-2.6 43.4 2 54.7 5.7 13.8 26 19.7 38.1 22zm-38.2-94.8v.3c-.1.6-.7 5-1.3 11.4a34.5 34.5 0 0 1-21.5-2c1.4-12 7.4-26.7 7.5-26.9.2-.5.3-1 .2-1.5 0-.5-6-43.3-6-80.6 0-25.9 18.8-32.8 30-34.5a3 3 0 1 0-1-6c-4.5.8-11.6 2.5-18.1 6.7l-50.8-95c3.2-1.6 8.1-4.8 11.6-9.1a310.8 310.8 0 0 1 4.2 7A70 70 0 0 0 172 131l55.7 52.3a142 142 0 0 0-6.4 86.3l-16.9 75.3zM317 261c-10.4 5.9-14 17.7-15.1 22.7-10.6.7-24-5.8-24.1-6a3 3 0 0 0-.7-.2L226.8 267c-9-36.7 2-69.8 6-80 8.5 5.4 33 20.3 49.8 24.5a35.1 35.1 0 0 0 18-.5 50.8 50.8 0 0 0 41.1 21.6h.5L344 260c-10.6-3.6-19.7-3.3-27.1 1zm89.5-24c-1.4 8-12.7 18-31 27.6a5.8 5.8 0 0 1-7.2-1.4l-4.5-5.6a3 3 0 0 0-2.4-1.1h-11.5l-1.6-24.2a13 13 0 0 0 9.2-4.7 116 116 0 0 0 16.5 31.3 3 3 0 0 0 2.4 1.2c1.2 0 2.3-.6 2.7-1.6.3-.7.4-1.4.2-2-.3-3.4-3.3-29.5-3.3-39.7 0-6 2.7-7.2 5-7.2l1.9.1c3 .3 5.8 1.1 8.4 2.5 3.4 1.9 6.7 4.5 9.3 7.6 2.8 3.1 7.2 9.6 5.9 17.1z"
		data-original="#000000" />
</svg>