<svg stroke="currentColor" xmlns="http://www.w3.org/2000/svg" xml:space="preserve" viewBox="0 0 682.7 682.7">
	<defs>
		<clipPath id="a" clipPathUnits="userSpaceOnUse">
			<path d="M0 512h512V0H0Z" data-original="#000000" />
		</clipPath>
	</defs>
	<path fill="none" stroke="currentColor" stroke-linecap="round" stroke-linejoin="round" stroke-miterlimit="10"
		stroke-width="20" d="M449.7 390.4h-119M480.8 439 411 514" data-original="#000000" />
	<g fill="none" stroke="currentColor" stroke-linecap="round" stroke-linejoin="round" stroke-miterlimit="10" stroke-width="15"
		clip-path="url(#a)" transform="matrix(1.33333 0 0 -1.33333 0 682.7)">
		<path
			d="M284.6 7.5h169.8c6.5 0 11.8 5.3 11.8 11.8v18c0 6.5-5.3 11.7-11.8 11.7H351.2m92.6 190.8a429.7 429.7 0 0 1-29 28.9 30.3 30.3 0 0 1-40.5 0 429.9 429.9 0 0 1-29.2-29.2 30.3 30.3 0 0 1 0-40.6 429.9 429.9 0 0 1 29.2-29.2 30.3 30.3 0 0 1 40.6 0 430 430 0 0 1 28.9 28.8 30.6 30.6 0 0 1 0 41.3Z"
			data-original="#000000" />
		<path
			d="M336.9 81.9A157.3 157.3 0 0 0 358 7.5H45.8c0 62.3 15 108.6 15 150.8 0 42.2-6 83.5-6 83.5m188.9 0c0-39.5 44.2-83.6 77.7-134.3M130.7 241.7H59.2c-7.4 0-13.4 6-13.4 13.5v18.2c0 7.5 6 13.5 13.4 13.5h71.5"
			data-original="#000000" />
		<path
			d="M164.2 286.9h84.2c7.4 0 13.4-6 13.4-13.5v-18.2c0-7.4-6-13.5-13.4-13.5h-84.2m279.6-1.9a429.7 429.7 0 0 1-29 28.9 30.3 30.3 0 0 1-40.5 0 429.9 429.9 0 0 1-29.2-29.2 30.3 30.3 0 0 1 0-40.6 429.9 429.9 0 0 1 29.2-29.2 30.3 30.3 0 0 1 40.6 0 430 430 0 0 1 28.9 28.8 30.6 30.6 0 0 1 0 41.3ZM130.7 363.3v40.1"
			data-original="#000000" />
		<path d="M164.2 403.4V164.8h-33.5v168.5" data-original="#000000" />
		<path
			d="M94.1 473.1a55.7 55.7 0 0 1 106.7 0zm53.4-71.3c-48 0-87 39-87 87 0 8.7 7 15.7 15.7 15.7h142.6c8.6 0 15.7-7 15.7-15.7 0-48-39-87-87-87zm-16.8-211h-29.5m315.9 28.4a22.6 22.6 0 1 1-45.1 0 22.6 22.6 0 0 1 45.1 0Z"
			data-original="#000000" />
	</g>
</svg>