<svg xmlns="http://www.w3.org/2000/svg" xml:space="preserve" viewBox="0 0 468.9 468.9">
	<path
		d="M433.3 454.6a271 271 0 0 0-12.4-6.6c-8.1-4.2-21.7-11.2-22.6-14.4-2.2-8.8 5.3-30.7 9.4-42.4l2.6-8c10.5-35 5.6-51 1.7-57.5-8.5-14.1-51.6-10.2-66.6-8.3 8.7-32.9 5.3-54.7 4.2-60a27.2 27.2 0 0 0 2-19.5c-3.1-10.8-12.6-20.2-28.3-28l-2-1a14.9 14.9 0 0 1-8.5-10.5c5.2 1.1 13.5 2 17.1-3.4 2.4-3.6 2.8-13 2.9-15.8a97 97 0 0 0-2.7-25.1c-3.8-15.1-11.1-26-21.2-31.4a36.6 36.6 0 0 0-8.2-3.3 81.7 81.7 0 0 0-3.7-13c-5.9-15.5-14.5-37.6-22.4-55.3l.1-.4c4.5-15 8.7-29.3-1-46.3a8.6 8.6 0 0 0-6.3-4.3 8.7 8.7 0 0 0-7.4 2.4 49 49 0 0 0-12.4 48.7l6 18v.2a273 273 0 0 1 15.7 60.4 40.9 40.9 0 0 0-8.9 14.1 31.2 31.2 0 0 0-8.4-3.2 15.6 15.6 0 0 0-3.2-.4c-5.5 0-10.5 2.9-13.4 7.7-12.2 20.2 17 59.5 18.3 61.1a3 3 0 0 0 2.4 1.2 3 3 0 0 0 2.8-2 3.2 3.2 0 0 0 0-1.7c-.3-3.6-3.8-34.3-3.8-46.3 0-5.8 2.1-8 4.5-8.6 1 9.2 7.5 22 9.6 25.9-2.4 7-11.9 40.8 6.5 68l1.9 6.5c4.4 15 10.4 35.3 3 54.1a53 53 0 0 1-16.5 21.9l-4.9 3.9c-5.2 4-9.7 7.5-11.5 12.2-3 7.6-3.4 14.6-3.4 18-8 3.3-37 15.2-55.4 26.5-11 6.9-22.5 5-33.2 2.4a404.6 404.6 0 0 1-4-1c-7.6-1.8-14.8-3.6-21.6-2.8a515.8 515.8 0 0 0-59.2 15.2 10.5 10.5 0 0 1-9.2-1.6c-3-2.1-6.9-2.8-10.4-1.8-7.4 2.2-13 8.5-14.2 16.1l-5.2 31.1a13.3 13.3 0 0 0 .7 7.1c2 4.4 6.8 11 18.4 11a34 34 0 0 0 3.8-.1c7.4-.9 11.7-3.1 13-7a9 9 0 0 0-3.2-10.1c-3-1.6-6.7-2.7-6.7-2.7L74.5 433a24.6 24.6 0 0 1 15-4.3l102.8 4.6h.2c.8 0 21-.3 46.5-7.6 23.2-6.6 55.2-20.3 77.4-48.6 10.4 3.2 33.1-4.7 55.7-13l3.6-1.4c-3.9 8.8-6 22-6.4 39.4-.3 15.4.9 29.2 1.1 32l-4.2 18.2a9.4 9.4 0 0 0 8.2 11.7l54.4 4.8h.9c3.3 0 6.2-2 7.2-5.3 1-3.4-.5-7-3.6-8.9zM249 160.3c0 8.2 1.6 24 2.7 35.2-8.2-13.5-17.6-33.7-11.2-44.4 1.8-3 4.9-4.8 8.3-4.8a9.6 9.6 0 0 1 2 .2c1.2.3 2.4.7 3.5 1.2-3.8 2.8-5.2 8-5.2 12.6zm16.4-11c0-1 .8-3.8.9-3.9.8-2.4 2.2-4.9 3.9-7.3.9 9.4 1.2 19.1.4 28.7a53 53 0 0 1-5.2-17.5zm9.9 29v-.1l.1-.4v-.1c7.8-49.5-13.7-104.4-16-110.1l-.3-.7-5.8-17.6a42.7 42.7 0 0 1 10.9-42.5 2.8 2.8 0 0 1 2.3-.8c.5.1 1.4.4 2 1.3 8.4 14.9 4.7 27.3.5 41.7l-.4 1.4a3 3 0 0 0 .1 2.1c8 17.7 16.7 40.3 22.7 56a75.5 75.5 0 0 1 4.8 29l-1.4 48.4a106.6 106.6 0 0 0 2.7 27 3 3 0 0 0 3 2.4 3 3 0 0 0 1.8-.6 3 3 0 0 0 1-3.2 100.6 100.6 0 0 1-2.5-25.5l1.4-48.2a82.3 82.3 0 0 0-.5-11.8 32.2 32.2 0 0 1 4.3 2c10.9 5.8 16 18.2 18.3 27.5 4.2 17.2 2.1 34 .6 36.1-1.8 2.8-9.7 1.6-14.5-.1a3 3 0 0 0-4 2.6c-.3 5 1.9 15.4 12.5 20.3 1 4.3 3 18.4-7.3 26.5-11 8.7-27.5 2.5-31.1 1-18.2-27.3-5.4-63.2-5.2-63.6zm11 130c8-20.6 1.7-42.2-3-57.9l-.4-1.2c3.7 1.1 8.8 2.3 14.2 2.3 6 0 12.6-1.4 18.2-5.9 6.4-5 10-12.6 10.4-21.8 0-2.2 0-4.2-.2-6 11.1 6.4 18 13.6 20.2 21.6a20.8 20.8 0 0 1-1.7 15.9c-.5.7-5.8 7-14.7 5.4a3 3 0 1 0-1 5.9l3.9.3c5.3 0 9.4-2 12.2-4 1.2 9 2.1 29.4-6 57.2-2.6 9.4-6.2 18.5-10.6 27.4-38.1 10.7-54-9.8-58-16.4 5.7-5 12.2-12 16.4-22.7zM71 428.2l-21.4 14.7a3 3 0 0 0-1 3.6c.3.9 1 1.5 1.9 1.8l8.6 3c1.2.6 2.3 1.5 2.8 2.8.2.5.3 1 .1 1.4-.3 1-2.6 2.3-8 3-10.2 1-14.2-3.5-15.8-6.7l-.1-.9a19.6 19.6 0 0 1 0-6l4.8-28.6c.9-5.4 4.8-9.8 10-11.3a6 6 0 0 1 5.2 1 16.7 16.7 0 0 0 14.5 2.3c13.1-4 45-13.4 58-15 5.8-.6 12.5 1 19.5 2.8l1.5.3-3 29-59-2.6a30.6 30.6 0 0 0-18.6 5.4zm121.4-.8-37.7-1.7 2.8-27.9c10.7 2.3 22.7 3.4 34.4-3.9a440.1 440.1 0 0 1 56.5-26.7 3 3 0 0 0 2-3.1c0-.1-1-8.5 2.7-17.6 1.3-3.2 5.2-6.2 9.7-9.7l2.3-1.8c2.1 3.3 6.2 8.6 13 13.1a51.6 51.6 0 0 0 29.3 8.5 78 78 0 0 0 16.5-2 171.1 171.1 0 0 1-6.4 10.6c-.5.9-3.5 5.2-4.6 6.6-40 53.2-117.6 55.5-120.5 55.6zm177.6-69c-12.2 4.6-39 14.5-49.7 13.5l2.3-3.5c9.3-14 16.3-29 21-44.7 4.5-.6 16.2-2 28.5-2.2 19-.4 31.8 2.3 34.8 7.3 5.8 9.7 3.6 27.2 1 39.9a48.3 48.3 0 0 1-27-3c1-2.7 2.4-4.8 3.8-6.4a3 3 0 0 0-2.8-5c-1.7.3-5 1.6-11.9 4.1zm61.1 103.4c0 .3-.5 1.2-1.7 1l-54.4-4.7a3.4 3.4 0 0 1-2.5-1.4 3.4 3.4 0 0 1-.5-2.8l4.4-19v-1s-1.5-15-1-31.7c.2-12.8 1.4-23.1 3.6-30.8a51.8 51.8 0 0 0 27.4 3.5 164.6 164.6 0 0 1-1.8 6.5l-2.6 7.8c-4.8 14-12.1 35.3-9.5 45.8 1.4 5.5 10.6 10.6 25.6 18.3 4.6 2.3 8.8 4.5 12.3 6.6 1 .6.9 1.5.7 1.9z" />
</svg>