<svg xmlns="http://www.w3.org/2000/svg" style="isolation:isolate" viewBox="0 0 600 600">
	<defs>
		<clipPath id="a">
			<path d="M0 0h600v600H0z" />
		</clipPath>
	</defs>
	<g clip-path="url(#a)">
		<ellipse cx="298.1" cy="299.8" fill="#B2B2B2" rx="272" ry="270" vector-effect="non-scaling-stroke" />
		<path fill="#F2F27A" fill-rule="evenodd"
			d="M365.3 522.5c1.7-4.7 2.6-2 3.4-6.5-.2-.1-.3-.2-.7-.2l-1.5-.5c-3-.6-5.9.1-7.5-3-1.2-4.1 1.6-3.3-.7-9.3-5.9-.4-12.7 2.7-13.2 6.9-1.2 7.9 6.7 6.4 8.3 13.4-2.7 4.9-4.3 3.5-7.4 6.7a39 39 0 0 0-.5 6.2 253 253 0 0 0 22.9-5.2l.1-1.8c-.1-7.1-.7-3.3-3.2-6.7M291.1 512c-5-1.2-11.3-3.3-15.4 2-3.1 8.9 4.7 8.3 2.4 15.3-3 2.5-5.2 1.8-9.5 2.6l-2.6 5.2c8 1.2 16 2 24.1 2.5l.2-.4c.9-2.8-.5-3.7-1.2-5.9 2.8-2.9 4.1-1.9 6.2-4.4-2-4.5-5.3-1.9-6.9-6-1.8-4.5 2.6-4.1 2.7-10.9m19.4-.2c-5.1-1.7-13.2-.2-14.3 5.2-1.5 6.9 5.8 5.7 5.6 14.1-5 4.9-8.1.2-10.1 8.4v.1a418.4 418.4 0 0 0 23.6-.1c.6-1.3 1.2-2-.5-5.7-2.9-5.9.5 3.3-1.1-1.7 2.6-3.1 3.8-1.9 4.9-6.1-2.8-1.3-6.7-.5-8.2-3.7-2.6-5.5 3.5-4.9.1-10.5m-153-54c-1.3-4.1-7.4-10.3-12.1-8.2-6.1 2.5-2 8.1-7.8 13.5-7.3-2.6-6.5-5.3-12.8-2.1a227.8 227.8 0 0 0 16.4 16.6l1.2-1.3c2.8-3.5-.4-.6 1.2-3.1 1.8-2.8 3.2.4 7.5-.5.4-3.6-3.2-5.6-1.5-9.1 1.8-3.9 4.1-1.1 7.9-5.8m60.1 37.6c-5.2-3.3-12-7.5-15.8-2.5-4.7 6 2 8.2-1.7 14.7-6.2 2.6-7.1-3.2-12.9 2.6a263 263 0 0 0 21.3 10.5c1.1-1.2.5-.1 1.2-2.7l.3-3.4c3.4-1.1 4.1 0 6.6-2.4-.7-1.7.2-.1-1.3-1.9-1.4-1.7-3.8-3.3-3.7-6.1 0-3.2 3.5-3.5 6-8.8m16 27.4c4-3 3.2-.2 6.4-3.5-.1-.2-.2-.4-.5-.6l-1-1.3c-2.2-2.1-5-3.1-4.6-6.5 1.2-4.2 3.2-1.9 4.4-8.2-4.7-3.5-12-4.7-14.8-1.5-5.3 6 2.1 9.1-.3 15.8-4.9 2.6-5.4.5-9.9 1.6l-2.5 3.1c7.2 3 14.5 5.6 22.1 7.9 3.4-5.3.8-2.7.7-6.8m-56.4-49.3c-3.5-3.8-7.7-9.1-14-6.8-7.5 5.8-.6 9.6-6.4 14.1-3.8.4-5.4-1.3-9.4-3l-3.4 2c6 5.3 12.2 10.3 18.7 15 1.1-1.4.7-2.9 1.3-4.6 3.8-.9 4.5.6 7.6-.2.7-4.9-3.5-4.6-2.6-8.9 1-4.8 4.4-2.2 8.2-7.6m16.4 10.4c-3.3-4.3-10.9-7.5-14.8-3.5-5 5 1.7 7.9-3 14.8-6.4 1.3-6.9-3.3-11.8.4a240 240 0 0 0 19.9 12.7c.4-.6.7-1.7 1.1-3.7.9-6.5-1.3 3.1.1-2 3.8-1.2 4.2.5 7.5-2.4-1.7-2.6-5.4-4.2-4.9-7.7.7-6 5.7-2.2 5.9-8.6m-95.9-118c1.1-3.6-.4-11.4-4.9-12.3-5.8-1.2-5.6 5.1-12.6 6.2-4.3-5.9-1.9-7.5-9.3-8.2l-2.6-.2c1.5 6.8 3.3 13.7 5.3 20.3h.1c1.7.3.4 1.3 3.4.3 3.8-1.2 0-.7 2.4-1.7 2.8-1.2 2.2 1.9 6 3.3 2.1-2.5.3-5.8 3.4-7.5 3.3-1.9 3.6 1.4 8.8-.2m25.9 58.3c-2.1-5.1-5.1-11.5-10.6-9.8-6.4 2.1-2.7 7.2-8.7 10.1-5.4-1.2-4-5.2-9.5-4.8 3.4 6.1 7.2 11.9 11.1 17.5l.2-.2 2-2.4c3.1.9 3 2 6.1 1.6.3-1.6.2 0 0-2-.1-2-1.2-4.5.3-6.4 1.8-2.4 4.6-.8 9.1-3.6m-1.8 28.5c4.4-.2 2.5 1.5 6.5.6v-.7l-.2-1.4c-.5-2.8-2-4.9-.1-7.3 3-2.5 3.4.2 7.5-3.8-1.7-5-6.6-9.6-10.4-8.7-7.1 1.8-3 7.9-8.2 11.6-4.9-.5-4.4-2.4-8.1-3.8l-1.1.3c4.1 5.7 8.3 11.1 12.9 16.5.9-.7-.2-1 1.2-3.3m-17.3-65.1c-.6-4.7-1.2-10.6-6.9-12.2-8.5.5-5.3 6.8-11.9 7.4-3.1-1.7-3.4-3.8-5.4-7.1l-5.2-.3a184 184 0 0 0 7.9 20.7c1.6-.5 2-1.8 3.3-2.8 3.3 1.3 3 2.7 5.8 3.6 3.1-3.3-.2-5.1 2.6-7.9 2.9-2.9 4.2.7 9.8-1.4m7 16c-.4-4.9-4.5-11.1-9.3-10.1-6.4 1.3-2.8 6.7-9.8 9.6-5.4-2.4-3.4-6-9-5.7a278 278 0 0 0 9.5 18.9l1.6-1.6c3.8-4.5-2.6 1.6 1.1-1.4 3.5 1 2.9 2.5 6.8 1.9 0-2.8-1.9-5.9.2-8.2 3.7-4 5.4 1.3 8.9-3.4ZM269.4 76.8c4 1.6 12.6 1 14.1-4 1.7-5.3-3.3-6.5-4.9-12-5.2.5-10.5 1.3-15.7 2.1 2.5 1.9 5.9.9 7.3 4.1 1.7 3.9-2 3.9-.8 9.8m-67.5 21.8c5.9-1.8 13.5-4.4 12.1-10.6-1.3-6-5.4-4.7-8.4-7.8-4.8 2.2-9.6 4.5-14.3 6.9h.7c2.2.1 5-.7 7.1 1.1 2.4 2.2.2 5.1 2.8 10.4m-32.7 1.7c.2.1.4.2.7.1h1.6c3.1-.2 5.7-1.7 8 .7 2.3 3.6-.6 3.6 3.4 8.7 5.8-1.3 11.3-6.2 10.7-10.4-1-6.7-6.1-5.2-9.8-8.2-5 2.9-9.9 6-14.6 9.1m75.5-18.5c5.1-.2 11.8-.1 14.2-6.3.3-7.6-4.3-7.3-6.1-10.6-5 1.1-9.9 2.2-14.7 3.6 2.1.7 4.1-.5 6.1 2 2.9 4-1.3 4.8.5 11.3Zm-18.6 5.8c5.4.2 12.7-3.5 12.3-9.1-.5-5.6-4.5-4.8-7.4-7.9-5.4 1.7-10.8 3.6-16 5.7 2.9.1 6.2-1.3 8.3 1.2 4.1 4.5-2 5.8 2.8 10.1m-63.7 38.2c4.1-1.1 10.7-6.8 9-11.6-1.9-5.6-7.1-3-11.6-7.2a268 268 0 0 0-11.8 9.3l.1 2.2c3.6.5 5.8-3 9.2-1.1 3.6 2.1.6 4.4 5.1 8.4m-41.2 57.8c3.6-5 8.1-11.5 3.4-15.7-5.8-5-8.3 1.5-14.6-2.6-1.6-4.7 1.2-6.2.5-9.2-4.4 5.7-8.4 11.6-12.2 17.8l.7.2 3.4.5c.9 3.4-.2 4.1 1.9 6.7 1.7-.6.1.2 1.9-1.2 1.9-1.3 3.6-3.5 6.3-3.3 3.5.4 3.5 4.1 8.7 6.8M473.9 414c-3.7 2-8.7 9.2-5.9 13.5 3.5 5.4 8.3.4 14.6 5.1-1.3 7.9-4.4 7.4.9 13.8 1.3 1.7 3 3.8 4.9 5.9 5-6.3 9.7-12.7 14.2-19.4a16.1 16.1 0 0 1-5.6-4.4c-1-1.5.6-1.3-2.3-3-4-2-.6.6-3.3-.5-3-1.2-.1-3.2-1.9-7.3-3.6.2-4.8 4.2-8.5 3.2-4.1-1.3-1.7-4-7.1-6.9m33.5-120.1c-2.2 3.7-3.1 12.7 1.6 15.1 5.9 3.1 7.7-3.8 15.8-2.9 2.9 7.8-.2 8.9 7.7 12 2.7 1.1 6.1 2.6 9.5 3.2.6-7.1 1-14.2 1-21.4v-3.7c-2.9 0-5.4-.2-7.4-1.2-1.7-.9-.1-1.5-3.7-1.4-4.5.1-.2.9-3.1 1.2-3.4.4-1.8-2.9-5.4-5.6-3.2 2.1-2.2 6.2-6.2 7.3-4.2 1-3.6-2.7-9.8-2.6m-10.2-72.4c.7 6.3 2 14.4 8.5 14.1 7.8-.3 5.1-7.1 12.7-8.4 6.2 3.2 2.1 7.8 10.7 8.4l5.2.3c-2.2-8.2-4.9-16.2-8-24.1l-2.4.1c-2.9.1-.9-.5-3.6 1l-2.9 1.9c-3.2-1.9-2.8-3.1-6.3-3.6-.9 1.7-.2-.1-.6 2.2-.4 2.4-.1 5.2-2.2 7.1-2.7 2-5.3-.7-11.1 1m11-30.9c-4.9-1.2-2.3-2.4-7.1-2.7-.1.2-.2.3-.2.7l-.3 1.6c-.2 3.2.9 6.1-2.1 8-4.1 1.8-3.6-1.2-9.3 2 .2 6.1 4.2 12.6 8.7 12.7 8.2.2 5.8-7.7 12.7-10.3 5.2 2.1 4.1 4 7.8 6.7 1.9.1 4.4 0 7.1-.3-3.2-7.7-6.7-15.2-10.7-22.5h-.1c-7.4 1-3.3 1.2-6.5 4.1m-1.5 77.3c-.6 5.3-2 12 4 15.6 9.5 2 8-6 15.4-4.4 2.9 2.8 2.6 5.1 3.8 9.4 2.7 1 7.9 2.9 13 3.8-.2-8.5-1-17.1-2.1-25.4h-.2c-3.7.1-3.4-1.1-6-1.6-2.9-.6-3.7 1-5.9 1.9-3.2-2.6-2.5-4-5.2-5.8-4.4 2.6-1.3 5.7-5.2 7.8-4.5 2.5-4.7-1.9-11.6-1.3m-5.6 79c-2.5 5.7-5.2 13.1.4 16 6.7 3.4 7.7-3.5 14.7-1.1 3.6 5.7-1.9 7.6 4.9 12.3 3.2 2.1 6 3.7 8.4 4.9 2.8-7.9 5.1-16 7.1-24.3a23 23 0 0 1-8.4-3.1c-2.5-1.3-.4-1-3.5-1.1l-3.4.3c-1.7-3.2-.7-4-3.5-6.1-1.5 1.1-.1-.2-1.6 1.6-1.4 1.7-2.6 4.4-5.2 4.8-3.4.6-4.2-2.8-9.9-4.2m24.1-20.8c-3.6-3.3-.9-3.1-4.6-5.7-.2.1-.4.2-.6.5l-1 1.3c-1.8 2.6-2.2 5.4-5.7 5.7-4.3-.4-2.5-2.8-8.9-2.8-2.7 5.2-2.5 12.6 1.2 14.8 6.9 4.1 8.7-3.7 15.7-2.6 3.4 4.4 1.5 5.2 3.3 9.4a46 46 0 0 0 12.6 5.4c1.9-8.3 3.3-16.8 4.3-25.3l-2.7.1c-4 .3-2.8.3-6.4-1.3-6.4-2.6-3.1-.4-7.2.5m-38.4 64.5c-3.1 4.2-7.5 9.2-4.2 15 7.1 6.3 9.6-1.2 15.1 3.7 1.1 3.7-.3 5.6-1.3 9.7 1.8 2.1 5.2 6.3 9.2 9.6a251 251 0 0 0 12.2-21.6l-2-1c-3.2-1.8-2.4-2.7-4.2-4.3-2.2-1.9-3.7-1-5.9-1.3-1.6-3.6-.2-4.5-1.7-7.4-4.9.1-3.8 4.2-8.2 4.1-4.8 0-2.9-3.8-9-6.5m7.4-18.1c-3.6 4.1-5.3 12.2-.9 15.3 6 4.1 7.5-3.1 15.2.2 2.7 6.6-2.8 7.7 4 12.7 2.1 1.6 4.3 3.1 6.3 4.3 3.7-7.5 6.9-15.2 9.8-23a6 6 0 0 0-1.2-.2c-8.4-1.8-4-4.9-11.2-4.5-6.6.3 3.2.7-2 .2-1.9-3.5-.3-4.2-3.7-6.8-2.2 2-3.1 6-6.6 6.2-6.2.2-3.4-5.2-9.7-4.4m-110.3 122c-4.3-.3-12.3 3-12.3 8.1 0 6.5 6.8 4.9 9.6 12.3-5.4 6-7.7 3.8-6.8 12l.2 2.1c7.3-2.2 14.3-4.8 21.3-7.8l-.3-2c0-1.8 1.3-.7-.4-3.7-2.1-3.8-.7.2-2.5-2.2-1.8-2.7 1.7-2.8 2.4-7.2-3.2-1.7-6.3 1-9-2-2.8-3.2.7-4.3-2.2-9.6m57.7-41.2c-5.1 3.5-11.4 8.2-8.3 13.7 3.7 6.6 8.4 1.3 12.9 7.2 0 6.7-5.7 5.3-2.5 13l2.5 5.3c6.5-4.9 12.8-10 18.8-15.5a56 56 0 0 1-3.1-4.9c-1.4-2.5 0-1-2.5-2.8l-3-1.6c.2-3.5 1.5-3.7.3-7.1-1.8.1 0-.2-2.2.5-2.1.6-4.5 2.2-7.1 1.2-2.9-1.3-1.7-4.8-5.8-9m31.5-4.4c-1.3-4.7 1-3-.9-7.3l-.9.2-1.5.4c-2.8 1.3-4.8 3.4-7.8 1.8-3.3-2.7-.5-3.7-5.9-7.2-5.1 2.9-9 9.2-7.1 13 3.5 7.3 9.2 1.6 14.4 6.4.5 5.6-1.5 5.2-2.2 9.7 1.2 2.7 3.2 6 5.7 9l5.7-5.4c4-4 7.8-8.1 11.4-12.3l-.1-.1c-3.4-1.9-2.6-1.3-4.7-4.6-3.8-5.6-2.1-2.1-6.1-3.6m-67.2 33.4c-4.8 1.8-11.2 3.6-11.6 10.4 2.6 9.1 8.7 4.2 10.7 11.2-1.2 3.7-3.3 4.5-6.4 7.5.3 1.9.6 4.9 1.3 8.1 7.3-3.2 14.3-6.7 21.2-10.6-.3-1.5.1-2-.4-3.8-.7-2.8-2.5-2.8-4.2-4.2.6-4 2.2-3.8 2.6-7.1-4.2-2.7-5.4 1.4-9.1-1.1-4.2-2.7-.4-4.8-4.1-10.4m16-11.2c-5.2 1.5-11.1 7.3-9 12.4 2.8 6.6 8 1.5 12.7 8.4-1.4 7.1-6.5 4.8-3.6 12.7l1.2 3a259 259 0 0 0 19.9-12.8c-3.2-4.2.3-4.6-5.2-7.8-5.7-3.2 2.4 2.5-1.8-.9.3-4 2-3.7.6-7.8-3 .5-6 3.4-9 1.6-5.3-3 0-6.1-5.8-8.8M266 509.8c-3.3-2.8-11.8-4.6-14.6-.3-3.6 5.3 2.9 7.9 1 15.5-7.9 1.9-8.5-1.2-12.4 6.1l-.3.4c7.3 2 14.7 3.6 22.3 5 .9-1.2 1.2.1 1.5-3.2.4-4.4-.6-.2-.7-3.2 0-3.3 3-1.3 6-4.6-1.6-3.2-5.7-2.8-6.2-6.7-.7-4.1 2.9-3.1 3.4-9m70.9-1.5c-6.2 0-14.1.3-14.6 6.6-.5 7.5 6.2 5.8 6.6 13.1-3.7 5.7-7.6 1.2-9.3 9.4l-.4 1.9c8-.5 15.9-1.5 23.7-2.8l.1-1.4c.2-2.8.6-.7-.4-3.6l-1.6-3c2.2-2.8 3.4-2.2 4.3-5.7-1.5-1 .1-.1-2-.9-2.2-.6-5.1-.6-6.5-3-1.8-2.7 1-4.8.1-10.6m-244-310.4c2.7 4.1 0 3.2 3.1 6.6.2-.1.4-.1.6-.4l1.3-1c2.4-2 3.5-4.8 6.9-4.2 4 1.4 1.7 3.3 7.9 4.8 3.8-4.5 5.3-11.6 2.3-14.7-5.8-5.7-9.2 1.6-15.8-1.3-2.2-5-.2-5.4-1-9.9l-1.5-1.5c-4 6.6-7.6 13.4-10.9 20.3 5.5 4 3 1.2 7.1 1.3m52.6-53.4c4.1-3.3 9.5-7.1 7.7-13.6-5.3-7.7-9.5-1.2-13.7-7.1l-6.4 6.1-3.4 3.5c-.2 1.5-.7 2.4-.2 4.4 4.8 1.1 4.7-3.2 9-2 4.5 1.4 1.8 4.6 7 8.7Zm-11.4 15.8c4.5-3.1 8.1-10.6 4.5-14.6-4.8-5.4-8 1.2-14.7-4l-.1-1.8c-3 3.3-5.8 6.7-8.7 10.3 1 .3 2.1.7-.2.3l.2-.2.9.3c1 4-.7 4.2 1.9 7.6 2.7-1.5 4.5-5.1 7.9-4.4 6 1.2 1.9 5.8 8.3 6.5M476 172.5c0 4.3 3.8 12.1 9 11.6 6.4-.4 4.4-7.2 11.5-10.4 6.3 4.9 4.4 7.4 12.4 5.9l1.7-.3a243 243 0 0 0-13.2-20.3l-1.4.7c-3.6 2.5.2.7-2 2.6-2.6 2.1-2.9-1.4-7.3-1.8-1.6 3.4 1.3 6.3-1.4 9.1-2.9 3.1-4.3-.3-9.3 2.9M430.6 118c3.8 4.8 9.1 10.9 14.3 7.3 6.2-4.2.6-8.4 6.2-13.4h1.3c-4.5-3.5-9-6.9-13.7-10.1l-1.8.6c.1 1.8-.2 0 .5 2.1.9 2.1 2.7 4.4 1.7 6.9-1 3.2-4.5 2.4-8.5 6.6m-13.8-29.7c0 .3 0 .4.2.7l.5 1.5c1.4 2.8 3.7 4.6 2.3 7.7-2.5 3.5-3.6.9-6.7 6.4 3.3 4.9 9.9 8.2 13.6 6.1 6.5-3.8 1.6-8.7 4.6-13.9-4.7-2.9-9.5-5.7-14.5-8.5m45.3 63.2c2.2 4.7 4.5 11 11.2 10.9 8.9-3.2 3.5-9 10.5-11.4 3.7.9 4.7 3 7.9 5.8l3.4-.7c-4.5-6.1-9.3-11.9-14.4-17.5l-.7 1.3c-4-.4-4.1-1.9-7.3-2-2.2 4.4 1.8 5.3-.3 9.1-2.5 4.1-4.9.4-10.3 4.5m-12.3-15.1c1.8 5.1 8.1 10.6 13 8 6.4-3.2.9-8 7.5-13.1 3.8.4 5 2.2 6.6 3.2l-4.3-4.5a233.2 233.2 0 0 0-9-8.4l-.2-.3c-3.7-.1-3.6-1.6-7.5 0 .7 3 3.7 5.7 2.2 8.9-2.6 5.4-6 .2-8.3 6.2m-59.1-44.9c2.5 3.4 10.3 7.4 14.1 4 4.2-3.6.7-7.1 1.9-12.3-4.6-2.2-9.3-4.3-14.1-6.2 1.4 2.3 4.2 3.4 3.7 6.6-.4 4.2-3.6 2.3-5.6 7.9m-69-16.5c6 1.5 13.8 3.2 15.8-2.8 1.9-5.4-1.8-6.7-3-10.5a346 346 0 0 0-15-1.5c1.9 1.1 4.4 1.9 5.1 4.4 1 3.1-2.3 4.5-2.9 10.4m-28.1-15.1 1.3.7c2.8 1.4 5.7 1.5 6.4 4.8.2 4.3-2.5 2.9-1.5 9.2 5.6 1.9 12.8.6 14.5-3.3 2.5-6-2.1-7.5-4.1-11.5l-7.4-.1-9.2.2m73.3 23c4.6 2.6 10.1 6.1 15.5 2 4-6 .4-8.2.3-11.6-4.6-1.6-9.1-3-13.8-4.4 1.4 1.1 3 1.5 3.3 4.2.6 4.8-3.4 3.4-5.3 9.8ZM348 78.2c4.6 3 12.8 3.6 15.3-1.4 2.4-4.7-1-6.2-2-9.9-5-1.3-10.1-2.4-15.3-3.3 2.1 1.1 4.5 1.9 5 4.5 1.1 6-4.7 3.9-3 10.1m156.1 169.9c-1.2 5.4 1.4 13.6 7.1 14.1 7.4.5 5.1-6.6 13.8-7.6 5.7 4.6 1.3 8.3 9.9 9.3 1.8.3 3.7.4 5.6.6-1.3-8.3-2.9-16.5-4.9-24.5-4.9.7-3.8-2.5-9.3 1.1-5.7 3.6 3.3-1.1-1.7 1.2-3.4-2.2-2.4-3.6-6.8-4.3-.9 3 .3 7.1-2.8 9-5.4 3.3-5.7-3-10.9 1.1" />
		<path fill="#FFF"
			d="M256 440c-1.3 0-2.7-.2-4-.6a6.9 6.9 0 0 1-3.2-2.1c-.3-.2-.4-.5-.3-.9 0-.4.2-.6.4-1 .3-.2.7-.3 1.1-.2.3 0 .6.2.9.4.5.6 1.3 1.2 2.1 1.5 1 .3 1.9.5 3 .5 1.7 0 3-.3 3.7-1a3 3 0 0 0 1.2-2c0-.9-.4-1.5-1.2-2.1-.9-.5-2.1-.9-3.8-1.2-2.3-.4-4.1-1.1-5.1-1.9-1.1-1-1.6-2-1.6-3.3 0-1.2.3-2.1 1-2.9a6 6 0 0 1 2.5-1.8 12.1 12.1 0 0 1 7.4.2c1.1.5 2 1.3 2.7 2.1.2.3.3.6.3 1-.1.3-.2.5-.5.7-.3.2-.6.2-1 .2l-1-.5a4.3 4.3 0 0 0-1.9-1.4 8 8 0 0 0-2.7-.5c-1.3 0-2.2.3-3 .7-.7.5-1.2 1.2-1.2 2 0 .5.2 1 .4 1.3.3.4.7.7 1.5 1.1.7.3 1.7.5 3 .7 1.7.3 3 .7 4.1 1.3 1 .5 1.7 1.2 2.1 1.8.3.7.5 1.5.5 2.4 0 1.1-.2 2-.9 2.9-.6.7-1.5 1.4-2.7 1.9-1.1.5-2.4.7-3.8.7m19.3-.2c-1.2 0-2.2-.2-3.2-.9-1-.5-1.7-1.3-2.2-2.4-.6-1-.9-2.1-.9-3.4v-16.8l.3-1c.2-.2.5-.3 1-.3.4 0 .7.1 1 .3.2.3.4.6.4 1v16.8c0 1.2.3 2.1 1 2.9.7.7 1.6 1.2 2.7 1.2h1l.9.3c.2.3.3.6.3 1s-.1.7-.4 1c-.2.2-.5.3-1 .3h-.9Zm-8.6-15.7-.9-.3c-.2-.2-.3-.5-.3-.9l.3-.9c.2-.2.5-.3.9-.3h8.8l.9.3c.2.2.3.5.3.9l-.3.9c-.2.2-.5.3-.9.3h-8.8Zm23.2 15.9c-1.6 0-3.1-.3-4.4-1a7.2 7.2 0 0 1-3-3 10 10 0 0 1-1.2-4.8v-8.9c0-.4.1-.6.4-1 .2-.2.5-.3.9-.3s.7.1 1 .3c.3.3.4.5.4 1v8.9c0 1.5.2 2.7.9 3.5a4 4 0 0 0 2.1 2 7.7 7.7 0 0 0 6.2.1c.9-.4 1.6-1.1 2.1-1.8s.7-1.6.7-2.6h1.9a6.9 6.9 0 0 1-1.2 3.8c-.7 1.2-1.7 2-2.9 2.7-1 .8-2.4 1.1-3.9 1.1m7.6-.2c-.4 0-.7-.1-1-.3-.2-.2-.4-.5-.4-1v-16.1c0-.4.2-.7.4-1 .2-.2.5-.3 1-.3l1 .3c.2.2.3.5.3 1v16.1c0 .4-.1.7-.3 1a2 2 0 0 1-1 .3Zm16 .2c-1.8 0-3.4-.4-4.9-1.3a8 8 0 0 1-3.4-3.4c-.7-1.4-1.2-3-1.2-4.9 0-1.8.4-3.4 1.2-4.8a9 9 0 0 1 3.3-3.4c1.4-.9 3-1.3 4.8-1.3a8 8 0 0 1 4.1 1c1.3.6 2.2 1.5 3 2.6v-10c0-.4.2-.7.4-1 .2-.2.5-.4 1-.4.4 0 .7.2 1 .4.2.2.3.5.3 1v16.2c0 1.7-.4 3.3-1.3 4.8a8.3 8.3 0 0 1-3.4 3.3 9.9 9.9 0 0 1-4.9 1.2m0-2.3c1.4 0 2.6-.3 3.5-1a6.3 6.3 0 0 0 2.5-2.6c.6-1.1 1-2.4 1-3.7 0-1.3-.3-2.6-1-3.6a6.2 6.2 0 0 0-2.5-2.6c-1-.6-2.1-.9-3.5-.9a6 6 0 0 0-3.5.9 6.3 6.3 0 0 0-2.5 2.6c-.6 1.1-1 2.4-1 3.6 0 1.4.3 2.7 1 3.7a6.2 6.2 0 0 0 2.5 2.6c1.1.7 2.3 1 3.5 1Zm17.7 2.1c-.4 0-.7-.1-1-.3-.2-.2-.4-.5-.4-1v-16.1c0-.4.2-.7.4-1 .2-.2.5-.3 1-.3.4 0 .7.1 1 .3.2.2.3.5.3 1v16.1c0 .4-.1.7-.3 1-.3.2-.6.3-1 .3Zm0-22.3c-.5 0-1-.2-1.4-.5-.3-.3-.5-.9-.5-1.3 0-.6.2-1.1.6-1.4.3-.3.7-.5 1.3-.5.4 0 1 .2 1.3.5.4.3.5.7.5 1.4 0 .4-.1 1-.5 1.3-.4.3-.8.5-1.3.5m16.5 22.5c-1.8 0-3.4-.4-4.9-1.3a8.3 8.3 0 0 1-3.4-3.3c-.7-1.5-1.2-3.1-1.2-4.9 0-1.9.4-3.5 1.2-5a9 9 0 0 1 3.4-3.3 9.2 9.2 0 0 1 4.9-1.3 9 9 0 0 1 4.9 1.3c1.4.7 2.6 1.9 3.4 3.3.7 1.5 1.2 3.1 1.3 5a9.2 9.2 0 0 1-4.7 8.2 9 9 0 0 1-4.9 1.3Zm0-2.3a6 6 0 0 0 3.6-1 7 7 0 0 0 2.5-2.6c.5-1.1.9-2.2.9-3.6a7.2 7.2 0 0 0-3.4-6.3 7.1 7.1 0 0 0-3.6-.9 6 6 0 0 0-3.5.9 6.3 6.3 0 0 0-2.5 2.6c-.6 1.1-1 2.4-1 3.7a6 6 0 0 0 1 3.6 6.2 6.2 0 0 0 2.5 2.6c1.1.7 2.2 1 3.5 1Z" />
		<path fill="#A5A9A9" fill-rule="evenodd" d="m192.3 324.6-.1.4v.1l.1-.5Z" />
		<path fill="#FFF" fill-rule="evenodd"
			d="M61.5 302.2a27.6 27.6 0 0 0 2.6 25.1c2.4 4.2 8.8 8.4 13.2 9.9a25.6 25.6 0 0 0 32.5-20.2c.4-3.3.6-3.6.6-6.8-.1-1.5 0-1.3 1.1-2.2 3.3-3.2 7.3-9.7 7.9-14.8l2.9-20.5c.7-4.7-.2-9.5-1.4-13l-2.6-8.5a63.6 63.6 0 0 1-1.9-20c.2-1.7.1-2.4.2-3.6.3-3.6 1.2-4.8-2.7-5.3L81 217.7c-4.1-.5-3.4 2.9-4.8 9.6-.9 4.2-2.5 7.7-3.8 11a67.8 67.8 0 0 1-5 9.3c-1.9 3-3.8 5.2-5.6 8.8-3 6.2-3.4 16.3-4.7 25.1-.6 4.8-.7 8.3.2 12 .8 2.1 2.5 7.2 4.2 8.7" />
		<path fill="#F2F27A" fill-rule="evenodd"
			d="M281.1 149.3A171.9 171.9 0 0 1 449.7 202a172 172 0 0 0-24-29.1 165.4 165.4 0 0 0-118.2-46.5c-45.8.9-87 20.2-116.3 50.7a165.6 165.6 0 0 0-45.3 135.2 164.6 164.6 0 0 1 135.2-163ZM442 197.1c-61.5-11.9-154.7-.4-198.3 50.5-5 5.9-20.2 26.5-32.8 45.3l11.1-8.1c43.1-30 99.3-30.4 136.3 10.9-31.1-32.2-63.2-35.9-105.1-20.4-14.5 5.3-51.1 34.2-59.5 45.8l-1.4 3.4-.1.1v-.9a2 2 0 0 0-.1 1.3c-2.6 6-12.8 6.6-10.1-1.9 5.6-29.8 32.2-63.7 53.1-83.8 50.6-48.2 142.4-57.3 206.9-42.2m-83.2 98.6c-12.9-35.1-31.3-37.8-29-65.5 1.2-14.1 8.2-15.9 19.1-22.5-10.8 10.1-19.7 16.8-6.4 32.7 12.1 14.3 13.9 36.7 16.3 55.3m-5.5-70.8c3.8 16.5 62 49.6 25 70.2-.6.4-.6.3-1.3.5 4.8-2.4 13-13.5 3.1-22.4-11.3-10-26.9-31.7-26.8-48.3m20 21.6c42.1 20.9 65.5-28 7.2-36.4-27-4-23.2 23.3-15.3 23.5-8.3.7-14.5-24.2 7.8-29.3 84.2-19.1 58.3 80.9.3 42.2Z" />
		<path fill="#A5A9A9" fill-rule="evenodd"
			d="M61.6 281.3c.6.6 2.7 5.3 4.5 6.9-.3 1.4-1.1 3.2-1.5 4.4-.9 2.4-.7 3.8-1.8 4.4-.5-4.4-3-2.7-1.2-15.7m48.5 22c.4-3.3-.9-8.1.2-9.4a20 20 0 0 1 1.5-1.3l4.4-4.3c-.5 3.7-.9 6-2 8.8-.8 1.8-2.7 5.4-4.1 6.2m-22.5-35.9 3.6-25.5c.4-3.4 6.6-2.6 6.2.9l-3.6 25.6c-.4 3.4-6.6 2.4-6.2-1Z" />
		<path fill="#A5A9A9" fill-rule="evenodd"
			d="M99.9 253.9c.3-2.6.4-1.8.7-3.3 3.4 3.1 3.8 9.5 4 13.8l.7 16.3c.1 3.2 1.5 30 1.1 32.9-1 7.2-3.1 12.1-8.3 16-2.2 1.6-3.4 2.6-6.3 3.5a22 22 0 0 1-18.5-2.3c-6.2-4.4-10.6-12.4-9.5-20 1.1-7.8 2.8-11 5.2-18.7 1.5-4.5 11.5-35.1 12.8-37.8 1-2 2.6-4.4 4.4-5.2-.7 5.1-1.5 10.1-2.1 15.3-.5 3.3-.6 4.2.5 6.3a7.1 7.1 0 0 0 13.1-1.5c.5-1.7.3-2.8.6-4.8l.5-2.2.2-3.4.5-2.2c.4-1 .2-1.4.4-2.7" />
		<path fill="#A5A9A9" fill-rule="evenodd"
			d="M86.8 244.1c-2.2.3-6 4.2-7.3 6.3-2.7 4.2-6.4 16.2-8.1 21.6l-3.8 11.3c-2.2-2-4.8-10.1-4.4-14.1 1-7.6.7-9.6 5-15.7a69.9 69.9 0 0 0 13.1-31.6l31.5 4.4a70.1 70.1 0 0 0 1.2 24.2c2 8.8 5.6 13.8 4.3 22.4-.4 3.4-1.8 7.3-3.2 9.6a23.3 23.3 0 0 1-5.7 6.6 467 467 0 0 0-1.3-30.8c-.9-4.6-2.3-8.7-5.7-11.5-3-2.8 0-2.9-1.7-6.7-2.4-5.1-8.4-5.7-11.6-2.3-1.7 1.9-1.7 2.9-2.3 6.3" />
		<path fill="#FFF" fill-rule="evenodd"
			d="M85.3 301.8c3.7.5 6 1 8.7 4.6l.4.6a11.7 11.7 0 0 1-2.5 14.1c-6.8 5.8-19.1.6-17.9-9.7.7-5.4 5.5-10.4 11.3-9.6m-3.7 25.3c5 .7 7.8.5 12.2-2.8 5.1-4 7.3-10 5.3-16l-1.9-4c-6-9-18.4-8.7-24.6-.1-6.8 9.3.9 21.7 9 22.9" />
		<path fill="#FFF"
			d="M200.3 391.8c2.9 0 6.3-3.9 9.7-12a61.7 61.7 0 0 0 5.3-23.3c0-4.7-1.3-7.3-3.8-7.4-2.4 0-5 2-8.1 5.9-3.2 3.9-6 8.5-8.4 13.8a139 139 0 0 0-10 26.1c-4.2 18.7-7 30.3-8.6 34.9-2.6 8-5.8 11.9-9.3 11.9-2.6 0-4-1.8-4-5.6 0-2.2.6-5 1.4-8.6 2.4-8.7 6.1-17 11.3-25l3.2-4.2c.7-3.6 1.7-8.6 2.8-15.2 2.4-13.4 4-22.2 5.2-26.5 1-4.3 2.2-7.3 3.6-8.9 1.5-1.5 2.6-2.4 3.8-2.4 1.9 0 2.6.8 2.1 2.4-1.9 6.4-4 14-6.1 22.6h.8c7.7-16.6 14.5-24.8 20.6-24.8 5 0 8.1 3.2 9.3 9.6.4 2 .7 4 .7 6.1a47 47 0 0 1-3.6 16.7c-3.2 8.5-7.5 14-12.9 16.2-1.7.7-3.3 1.1-5 1.1-3.8 0-6-2.1-6.5-6.3-.1-.8 0-1.4.4-1.7.4-.4.8-.6 1.4-.4.6.1.8.6 1 1.3.2 2.5 1.5 3.7 3.7 3.7m-33.4 46.6c3.1 0 6.7-11.7 11.1-35.3-4.6 7.3-8.2 15.2-11 23.9a30.6 30.6 0 0 0-1.9 8.6c0 2 .7 2.8 1.8 2.8ZM245.8 325c1.8 0 2.6 1.3 2.6 3.6 0 2.4-1.1 4.3-3.5 5.9a5.3 5.3 0 0 1-3.1 1.1c-1.3 0-1.9-.3-2.2-1.1v-.4c.7 0 1.1-.7 1.5-2.2.3-1.5.7-3.1 1.4-4.6.8-1.5 1.8-2.3 3.3-2.3m-7.5 67.2c2.1 0 4.9-2.8 8.6-8.1a127 127 0 0 0 9.3-16.2l4-8h3.1l-1.8 3.8a136.6 136.6 0 0 1-10.6 19.2c-1.9 3.2-4.2 6-6.5 8.5-2.5 2.5-4.6 3.8-6.4 3.8-5.8 0-8.6-3.6-8.6-11.2 0-5.6 1.5-14.8 4.7-27.3l.8-3.1.6-2.7c.3-1.3.6-2.2.7-3.2.4-1.7 1.1-2.4 2.1-2.4 1.4 0 2.5 1 3.1 3.1a18.1 18.1 0 0 1 0 7.3l-1.5 6.4c-.7 2.8-1.3 5.2-1.5 7l-1.4 6.4c-.8 4.3-1.3 8.1-1.3 11.4-.1 3.7.9 5.3 2.6 5.3m47.3-70.4a55 55 0 0 0 4.3-15.1c0-2.7-.7-4-2.1-4.2-3.6 0-7.4 5.9-11.3 17.6-4 11.7-7.1 23.9-9.3 36.6a192.1 192.1 0 0 0-3.2 26.6c0 8.8 2.1 13.3 6.4 13.3 0 .6-.3 1.1-1 1.7-.7.4-1.5.7-2.5.7-6.3 0-9.5-5.7-9.5-17.2 0-4.2.7-10.6 2.4-19.3 1.5-8.8 3.5-17.9 6-27.3 2.5-9.5 5.7-17.7 9.7-24.8 3.9-7.1 7.9-10.6 12.1-10.6 3.2 0 4.9 2.1 4.9 6.3 0 3.1-1 7.4-2.9 13a148.5 148.5 0 0 1-21.1 39.8c-.3.4-.6.3-.6-.4-.1-1.5.3-2.8 1.1-3.9 6.3-9.6 11.9-20.7 16.6-32.8m5.5 73.4c-6.1 0-9.2-4.7-9.2-14 0-5.4 1.4-11.3 4.2-17.6 3.9-8.7 8.8-14.4 14.8-17 2.1-.8 4.3-1.3 6.4-1.3 2.1 0 3.9.6 5 1.8a5.8 5.8 0 0 1 1.9 4.2c0 .7-.4 1.1-1.1 1-.7 0-1.1-.3-1.1-1s-.4-1.4-1.1-2c-.7-.6-1.8-.8-3.2-.8-4.9 0-9.3 4.3-13.4 13.1a58.2 58.2 0 0 0-5.6 23.3c0 4.5 1 6.7 3.1 6.7 1.9 0 4.3-1.7 7.1-5a152.4 152.4 0 0 0 17.1-30.3c1-2.7 1.9-4 3.1-4 1.9 0 2.9 1.7 2.9 4.9a15 15 0 0 1-.4 3.5 336.3 336.3 0 0 0-4 21.6c-.3 2-.3 3.3-.3 4.2 0 3.8.8 5.7 2.6 5.7 1.9 0 4.9-2.8 8.5-8.1 3.6-5.4 6.8-10.7 9.5-16.2l3.9-8h3.2l-1.8 3.8a237.8 237.8 0 0 1-10.6 19.2c-2.1 3.2-4.2 6-6.7 8.5s-4.6 3.8-6.4 3.8c-5.7 0-8.6-4.2-8.6-12.6 0-2.8.4-6.1 1-9.8h-.9c-8 15-14.7 22.4-19.9 22.4m47.3-51.2c0-.8.6-1.3 1.7-1.3h6c.4-1.7 1-3.5 1.5-5.9l1.7-6.1 1.3-4.9c.3-1.5 1-2.2 1.9-2.2 1.4 0 2.4 1 2.9 3.1.1.8.3 1.8.3 3.2 0 1.1-.3 2.8-.7 4.7l-2.2 8.1h7.2c.7 0 1.3.1 1.5.7.3.4.3.8 0 1.3-.3.4-.8.7-1.5.7h-8a183 183 0 0 0-7.2 38.5c0 5.6 1.3 8.4 3.8 8.4 1.9 0 4.9-2.8 8.5-8.1 3.6-5.4 6.8-10.7 9.5-16.2l4-8h3.1l-1.8 3.8a237.8 237.8 0 0 1-10.6 19.2c-1.9 3.2-4.2 6-6.7 8.5-2.4 2.5-4.7 3.8-6.8 3.8a8 8 0 0 1-5.4-2 9.7 9.7 0 0 1-2.9-5.9c-.4-2.5-.6-5.2-.6-7.8 0-6.1 2.1-17.6 6.5-34.3h-5.3c-.7 0-1.1-.1-1.3-.6a1 1 0 0 1-.4-.7Zm34.9 34c0 9.3 3.5 14.1 10.2 14.1 2.4 0 5-1.1 7.8-3.3 2.8-2.2 5.3-4.9 7.5-8 5-7.3 8.5-13.1 10.4-17.6l1.5-3.2h3.2a138.4 138.4 0 0 1-13.2 23c-2.2 3.1-5 5.9-8.2 8.4a14.3 14.3 0 0 1-9 3.9c-11.6 0-17.4-6.6-17.4-19.5 0-6 1.8-12 5.3-17.9 4.9-8.4 10.9-12.6 17.8-12.6 5 0 7.5 2.7 7.5 8.1 0 4-1.5 8.4-4.7 12.7-4.3 5.9-9.3 8.9-15.2 8.9-.8 0-1.4-.3-1.7-1.1l-.1-.4c4 0 7.9-2.7 11.7-8.1 3.6-5.3 5.4-9.8 5.4-13.4 0-2.4-.8-3.5-2.8-3.5-4 0-7.9 3.5-11.6 10.7a46.4 46.4 0 0 0-4.4 18.8m51.7-45.3h.3c.7 0 1.3.3 1.7.8.4.6.6 1.1.6 1.7 0 .7-.6 1.8-1.5 3.8a8.8 8.8 0 0 0-1.5 4.5c0 1.2.1 2.2.4 3.2.3 1 1.3 3.2 2.9 7a57 57 0 0 1 5.3 21.9 24 24 0 0 1-5.2 16 15.5 15.5 0 0 1-12.4 6.3c-4.7 0-7.1-2.9-7.1-8.6 0-5.9 2.1-12.1 6.1-18.7a30 30 0 0 1 7.8-8.6c.8-.6 1.4-.4 1.7.3.3.8 0 1.5-.6 2a30.4 30.4 0 0 0-10.6 15.5c-2.2 6.4-2.4 10.9-.7 13.4.7.8 1.5 1.4 2.8 1.4 3.3 0 6.1-2.4 7.9-7a45 45 0 0 0 2.9-17.2c0-5.9-.7-11.3-2.1-16.5-1.4-5-2.1-8-2.2-8.8l-7.7 15.1h-3.1c4.3-8.9 7.8-15.5 10.2-20 .3-5.2 1.7-7.5 4.1-7.5" />
	</g>
</svg>